<svg width="20" height="20" viewBox="0 0 20 20" fill="none" xmlns="http://www.w3.org/2000/svg">
<path d="M15 8.67467V14.1663C15 14.8294 14.7366 15.4653 14.2678 15.9341C13.7989 16.4029 13.163 16.6663 12.5 16.6663H7.5C6.83696 16.6663 6.20107 16.4029 5.73223 15.9341C5.26339 15.4653 5 14.8294 5 14.1663V5.83301C5 5.16997 5.26339 4.53408 5.73223 4.06524C6.20107 3.5964 6.83696 3.33301 7.5 3.33301H9.65833C9.87695 3.33393 10.0864 3.42072 10.2417 3.57467L14.7583 8.09134C14.9123 8.24656 14.9991 8.45606 15 8.67467Z" stroke="#FF4400" stroke-width="1.5" stroke-miterlimit="10" stroke-linecap="round"/>
<path d="M10 3.73366V7.50033C10 7.72134 10.0878 7.9333 10.2441 8.08958C10.4004 8.24586 10.6123 8.33366 10.8333 8.33366H14.6C14.6326 8.3332 14.6644 8.32318 14.6914 8.30484C14.7183 8.28649 14.7393 8.26064 14.7518 8.23047C14.7642 8.2003 14.7675 8.16715 14.7612 8.13513C14.755 8.10311 14.7395 8.07362 14.7167 8.05033L10.2833 3.617C10.26 3.59416 10.2306 3.57865 10.1985 3.57241C10.1665 3.56617 10.1334 3.56947 10.1032 3.58189C10.073 3.59431 10.0472 3.61531 10.0288 3.64229C10.0105 3.66927 10.0005 3.70104 10 3.73366Z" stroke="#FF4400" stroke-width="1.5" stroke-linecap="round" stroke-linejoin="round"/>
<path d="M12.0832 14.167H7.9165" stroke="#FF4400" stroke-width="1.5" stroke-linecap="round" stroke-linejoin="round"/>
<path d="M10.4165 11.667H7.9165" stroke="#FF4400" stroke-width="1.5" stroke-linecap="round" stroke-linejoin="round"/>
</svg>
