<svg width="30" height="31" viewBox="0 0 30 31" fill="none" xmlns="http://www.w3.org/2000/svg">
<path d="M11.25 13C12.6307 13 13.75 11.8807 13.75 10.5C13.75 9.11929 12.6307 8 11.25 8C9.86929 8 8.75 9.11929 8.75 10.5C8.75 11.8807 9.86929 13 11.25 13Z" stroke="#FF4400" stroke-width="1.25" stroke-linecap="round" stroke-linejoin="round"/>
<path d="M16.25 3H11.25C5 3 2.5 5.5 2.5 11.75V19.25C2.5 25.5 5 28 11.25 28H18.75C25 28 27.5 25.5 27.5 19.25V13" stroke="#FF4400" stroke-width="1.25" stroke-linecap="round" stroke-linejoin="round"/>
<path d="M22.5 10.5V3L25 5.5" stroke="#FF4400" stroke-width="1.25" stroke-linecap="round" stroke-linejoin="round"/>
<path d="M22.5 3L20 5.5" stroke="#FF4400" stroke-width="1.25" stroke-linecap="round" stroke-linejoin="round"/>
<path d="M3.3374 24.1877L9.4999 20.0502C10.4874 19.3877 11.9124 19.4627 12.7999 20.2252L13.2124 20.5877C14.1874 21.4252 15.7624 21.4252 16.7374 20.5877L21.9374 16.1252C22.9124 15.2877 24.4874 15.2877 25.4624 16.1252L27.4999 17.8752" stroke="#FF4400" stroke-width="1.25" stroke-linecap="round" stroke-linejoin="round"/>
</svg>
