<svg width="16" height="16" viewBox="0 0 16 16" fill="none" xmlns="http://www.w3.org/2000/svg">
<path d="M9.66009 12.5268C9.47766 12.8018 9.22999 13.0274 8.93918 13.1835C8.64838 13.3395 8.32347 13.4212 7.99343 13.4212C7.66339 13.4212 7.33847 13.3395 7.04767 13.1835C6.75686 13.0274 6.5092 12.8018 6.32676 12.5268C3.66009 8.61343 3.86676 6.7201 3.86676 6.7201C3.86676 5.62741 4.30083 4.57947 5.07348 3.80682C5.84613 3.03417 6.89407 2.6001 7.98676 2.6001C9.07945 2.6001 10.1274 3.03417 10.9 3.80682C11.6727 4.57947 12.1068 5.62741 12.1068 6.7201C12.1068 6.7201 12.3534 8.61343 9.66009 12.5268Z" stroke="#00B800" stroke-width="1.5" stroke-linecap="round" stroke-linejoin="round"/>
<path d="M8.00008 8.04655C8.73646 8.04655 9.33341 7.4496 9.33341 6.71322C9.33341 5.97684 8.73646 5.37988 8.00008 5.37988C7.2637 5.37988 6.66675 5.97684 6.66675 6.71322C6.66675 7.4496 7.2637 8.04655 8.00008 8.04655Z" stroke="#00B800" stroke-width="1.5" stroke-linecap="round" stroke-linejoin="round"/>
</svg>
