<svg width="20" height="20" viewBox="0 0 20 20" fill="none" xmlns="http://www.w3.org/2000/svg">
<path d="M5 5.7832L5.625 15.0499C5.625 15.4919 5.80059 15.9158 6.11316 16.2284C6.42572 16.5409 6.84964 16.7165 7.29167 16.7165H12.7083C13.1504 16.7165 13.5743 16.5409 13.8868 16.2284C14.1994 15.9158 14.375 15.4919 14.375 15.0499L15 5.7832" stroke="#FF0000" stroke-width="1.5" stroke-linecap="round" stroke-linejoin="round"/>
<path d="M11.25 10.4668V14.2168" stroke="#FF0000" stroke-width="1.5" stroke-linecap="round" stroke-linejoin="round"/>
<path d="M8.75 10.4668V14.2168" stroke="#FF0000" stroke-width="1.5" stroke-linecap="round" stroke-linejoin="round"/>
<path d="M4.1665 5.7832H15.8332" stroke="#FF0000" stroke-width="1.5" stroke-linecap="round" stroke-linejoin="round"/>
<path d="M12.0832 5.7832V4.11654C12.0832 3.89552 11.9954 3.68356 11.8391 3.52728C11.6828 3.371 11.4709 3.2832 11.2498 3.2832H8.74984C8.52882 3.2832 8.31686 3.371 8.16058 3.52728C8.0043 3.68356 7.9165 3.89552 7.9165 4.11654V5.7832" stroke="#FF0000" stroke-width="1.5" stroke-linecap="round" stroke-linejoin="round"/>
</svg>
